<svg xmlns="http://www.w3.org/2000/svg" width="300" height="100" viewBox="0 0 107 12"><rect width="107" height="12" fill="#ffffff"/><rect x="2" y="2" width="8" height="1" fill="#000000"/><rect x="11" y="2" width="1" height="1" fill="#000000"/><rect x="13" y="2" width="1" height="1" fill="#000000"/><rect x="15" y="2" width="1" height="1" fill="#000000"/><rect x="19" y="2" width="5" height="1" fill="#000000"/><rect x="25" y="2" width="1" height="1" fill="#000000"/><rect x="27" y="2" width="1" height="1" fill="#000000"/><rect x="29" y="2" width="5" height="1" fill="#000000"/><rect x="36" y="2" width="2" height="1" fill="#000000"/><rect x="39" y="2" width="1" height="1" fill="#000000"/><rect x="41" y="2" width="1" height="1" fill="#000000"/><rect x="46" y="2" width="2" height="1" fill="#000000"/><rect x="53" y="2" width="3" height="1" fill="#000000"/><rect x="57" y="2" width="3" height="1" fill="#000000"/><rect x="61" y="2" width="2" height="1" fill="#000000"/><rect x="65" y="2" width="2" height="1" fill="#000000"/><rect x="70" y="2" width="4" height="1" fill="#000000"/><rect x="75" y="2" width="1" height="1" fill="#000000"/><rect x="77" y="2" width="1" height="1" fill="#000000"/><rect x="79" y="2" width="4" height="1" fill="#000000"/><rect x="87" y="2" width="7" height="1" fill="#000000"/><rect x="95" y="2" width="1" height="1" fill="#000000"/><rect x="99" y="2" width="1" height="1" fill="#000000"/><rect x="101" y="2" width="1" height="1" fill="#000000"/><rect x="104" y="2" width="1" height="1" fill="#000000"/><rect x="2" y="3" width="8" height="1" fill="#000000"/><rect x="11" y="3" width="1" height="1" fill="#000000"/><rect x="13" y="3" width="1" height="1" fill="#000000"/><rect x="15" y="3" width="1" height="1" fill="#000000"/><rect x="19" y="3" width="6" height="1" fill="#000000"/><rect x="26" y="3" width="1" height="1" fill="#000000"/><rect x="28" y="3" width="1" height="1" fill="#000000"/><rect x="32" y="3" width="3" height="1" fill="#000000"/><rect x="36" y="3" width="2" height="1" fill="#000000"/><rect x="39" y="3" width="1" height="1" fill="#000000"/><rect x="44" y="3" width="3" height="1" fill="#000000"/><rect x="50" y="3" width="1" height="1" fill="#000000"/><rect x="53" y="3" width="4" height="1" fill="#000000"/><rect x="58" y="3" width="1" height="1" fill="#000000"/><rect x="62" y="3" width="1" height="1" fill="#000000"/><rect x="64" y="3" width="1" height="1" fill="#000000"/><rect x="70" y="3" width="4" height="1" fill="#000000"/><rect x="75" y="3" width="1" height="1" fill="#000000"/><rect x="77" y="3" width="1" height="1" fill="#000000"/><rect x="80" y="3" width="1" height="1" fill="#000000"/><rect x="87" y="3" width="7" height="1" fill="#000000"/><rect x="95" y="3" width="1" height="1" fill="#000000"/><rect x="99" y="3" width="1" height="1" fill="#000000"/><rect x="101" y="3" width="1" height="1" fill="#000000"/><rect x="104" y="3" width="1" height="1" fill="#000000"/><rect x="2" y="4" width="8" height="1" fill="#000000"/><rect x="11" y="4" width="1" height="1" fill="#000000"/><rect x="13" y="4" width="1" height="1" fill="#000000"/><rect x="15" y="4" width="1" height="1" fill="#000000"/><rect x="19" y="4" width="3" height="1" fill="#000000"/><rect x="23" y="4" width="1" height="1" fill="#000000"/><rect x="25" y="4" width="1" height="1" fill="#000000"/><rect x="27" y="4" width="6" height="1" fill="#000000"/><rect x="36" y="4" width="1" height="1" fill="#000000"/><rect x="38" y="4" width="2" height="1" fill="#000000"/><rect x="42" y="4" width="2" height="1" fill="#000000"/><rect x="45" y="4" width="4" height="1" fill="#000000"/><rect x="53" y="4" width="2" height="1" fill="#000000"/><rect x="57" y="4" width="5" height="1" fill="#000000"/><rect x="66" y="4" width="1" height="1" fill="#000000"/><rect x="68" y="4" width="1" height="1" fill="#000000"/><rect x="70" y="4" width="3" height="1" fill="#000000"/><rect x="74" y="4" width="1" height="1" fill="#000000"/><rect x="76" y="4" width="1" height="1" fill="#000000"/><rect x="80" y="4" width="6" height="1" fill="#000000"/><rect x="87" y="4" width="7" height="1" fill="#000000"/><rect x="95" y="4" width="1" height="1" fill="#000000"/><rect x="99" y="4" width="1" height="1" fill="#000000"/><rect x="101" y="4" width="1" height="1" fill="#000000"/><rect x="104" y="4" width="1" height="1" fill="#000000"/><rect x="2" y="5" width="8" height="1" fill="#000000"/><rect x="11" y="5" width="1" height="1" fill="#000000"/><rect x="13" y="5" width="1" height="1" fill="#000000"/><rect x="15" y="5" width="1" height="1" fill="#000000"/><rect x="19" y="5" width="2" height="1" fill="#000000"/><rect x="22" y="5" width="1" height="1" fill="#000000"/><rect x="24" y="5" width="4" height="1" fill="#000000"/><rect x="30" y="5" width="5" height="1" fill="#000000"/><rect x="36" y="5" width="1" height="1" fill="#000000"/><rect x="38" y="5" width="1" height="1" fill="#000000"/><rect x="45" y="5" width="1" height="1" fill="#000000"/><rect x="47" y="5" width="1" height="1" fill="#000000"/><rect x="53" y="5" width="2" height="1" fill="#000000"/><rect x="59" y="5" width="1" height="1" fill="#000000"/><rect x="61" y="5" width="1" height="1" fill="#000000"/><rect x="66" y="5" width="2" height="1" fill="#000000"/><rect x="70" y="5" width="1" height="1" fill="#000000"/><rect x="72" y="5" width="1" height="1" fill="#000000"/><rect x="74" y="5" width="4" height="1" fill="#000000"/><rect x="80" y="5" width="4" height="1" fill="#000000"/><rect x="87" y="5" width="7" height="1" fill="#000000"/><rect x="95" y="5" width="1" height="1" fill="#000000"/><rect x="99" y="5" width="1" height="1" fill="#000000"/><rect x="101" y="5" width="1" height="1" fill="#000000"/><rect x="104" y="5" width="1" height="1" fill="#000000"/><rect x="2" y="6" width="8" height="1" fill="#000000"/><rect x="11" y="6" width="1" height="1" fill="#000000"/><rect x="13" y="6" width="1" height="1" fill="#000000"/><rect x="15" y="6" width="1" height="1" fill="#000000"/><rect x="19" y="6" width="3" height="1" fill="#000000"/><rect x="23" y="6" width="1" height="1" fill="#000000"/><rect x="25" y="6" width="3" height="1" fill="#000000"/><rect x="32" y="6" width="2" height="1" fill="#000000"/><rect x="36" y="6" width="2" height="1" fill="#000000"/><rect x="41" y="6" width="2" height="1" fill="#000000"/><rect x="44" y="6" width="4" height="1" fill="#000000"/><rect x="50" y="6" width="1" height="1" fill="#000000"/><rect x="53" y="6" width="3" height="1" fill="#000000"/><rect x="57" y="6" width="2" height="1" fill="#000000"/><rect x="62" y="6" width="3" height="1" fill="#000000"/><rect x="66" y="6" width="1" height="1" fill="#000000"/><rect x="70" y="6" width="4" height="1" fill="#000000"/><rect x="75" y="6" width="1" height="1" fill="#000000"/><rect x="77" y="6" width="3" height="1" fill="#000000"/><rect x="82" y="6" width="3" height="1" fill="#000000"/><rect x="87" y="6" width="7" height="1" fill="#000000"/><rect x="95" y="6" width="1" height="1" fill="#000000"/><rect x="99" y="6" width="1" height="1" fill="#000000"/><rect x="101" y="6" width="1" height="1" fill="#000000"/><rect x="104" y="6" width="1" height="1" fill="#000000"/><rect x="2" y="7" width="8" height="1" fill="#000000"/><rect x="11" y="7" width="1" height="1" fill="#000000"/><rect x="13" y="7" width="1" height="1" fill="#000000"/><rect x="15" y="7" width="1" height="1" fill="#000000"/><rect x="19" y="7" width="4" height="1" fill="#000000"/><rect x="24" y="7" width="1" height="1" fill="#000000"/><rect x="26" y="7" width="4" height="1" fill="#000000"/><rect x="31" y="7" width="1" height="1" fill="#000000"/><rect x="36" y="7" width="3" height="1" fill="#000000"/><rect x="41" y="7" width="1" height="1" fill="#000000"/><rect x="43" y="7" width="5" height="1" fill="#000000"/><rect x="50" y="7" width="1" height="1" fill="#000000"/><rect x="53" y="7" width="2" height="1" fill="#000000"/><rect x="56" y="7" width="2" height="1" fill="#000000"/><rect x="59" y="7" width="1" height="1" fill="#000000"/><rect x="62" y="7" width="4" height="1" fill="#000000"/><rect x="70" y="7" width="3" height="1" fill="#000000"/><rect x="74" y="7" width="1" height="1" fill="#000000"/><rect x="76" y="7" width="5" height="1" fill="#000000"/><rect x="82" y="7" width="1" height="1" fill="#000000"/><rect x="87" y="7" width="7" height="1" fill="#000000"/><rect x="95" y="7" width="1" height="1" fill="#000000"/><rect x="99" y="7" width="1" height="1" fill="#000000"/><rect x="101" y="7" width="1" height="1" fill="#000000"/><rect x="104" y="7" width="1" height="1" fill="#000000"/><rect x="2" y="8" width="8" height="1" fill="#000000"/><rect x="11" y="8" width="1" height="1" fill="#000000"/><rect x="13" y="8" width="1" height="1" fill="#000000"/><rect x="15" y="8" width="1" height="1" fill="#000000"/><rect x="19" y="8" width="3" height="1" fill="#000000"/><rect x="23" y="8" width="1" height="1" fill="#000000"/><rect x="26" y="8" width="3" height="1" fill="#000000"/><rect x="30" y="8" width="5" height="1" fill="#000000"/><rect x="36" y="8" width="4" height="1" fill="#000000"/><rect x="42" y="8" width="4" height="1" fill="#000000"/><rect x="47" y="8" width="1" height="1" fill="#000000"/><rect x="49" y="8" width="1" height="1" fill="#000000"/><rect x="53" y="8" width="1" height="1" fill="#000000"/><rect x="56" y="8" width="1" height="1" fill="#000000"/><rect x="58" y="8" width="2" height="1" fill="#000000"/><rect x="64" y="8" width="2" height="1" fill="#000000"/><rect x="70" y="8" width="2" height="1" fill="#000000"/><rect x="73" y="8" width="1" height="1" fill="#000000"/><rect x="76" y="8" width="3" height="1" fill="#000000"/><rect x="80" y="8" width="4" height="1" fill="#000000"/><rect x="87" y="8" width="7" height="1" fill="#000000"/><rect x="95" y="8" width="1" height="1" fill="#000000"/><rect x="99" y="8" width="1" height="1" fill="#000000"/><rect x="101" y="8" width="1" height="1" fill="#000000"/><rect x="104" y="8" width="1" height="1" fill="#000000"/><rect x="2" y="9" width="8" height="1" fill="#000000"/><rect x="11" y="9" width="1" height="1" fill="#000000"/><rect x="13" y="9" width="1" height="1" fill="#000000"/><rect x="15" y="9" width="1" height="1" fill="#000000"/><rect x="19" y="9" width="5" height="1" fill="#000000"/><rect x="25" y="9" width="1" height="1" fill="#000000"/><rect x="28" y="9" width="1" height="1" fill="#000000"/><rect x="30" y="9" width="2" height="1" fill="#000000"/><rect x="36" y="9" width="1" height="1" fill="#000000"/><rect x="41" y="9" width="1" height="1" fill="#000000"/><rect x="45" y="9" width="4" height="1" fill="#000000"/><rect x="50" y="9" width="1" height="1" fill="#000000"/><rect x="53" y="9" width="4" height="1" fill="#000000"/><rect x="59" y="9" width="1" height="1" fill="#000000"/><rect x="61" y="9" width="2" height="1" fill="#000000"/><rect x="64" y="9" width="2" height="1" fill="#000000"/><rect x="70" y="9" width="1" height="1" fill="#000000"/><rect x="72" y="9" width="1" height="1" fill="#000000"/><rect x="74" y="9" width="6" height="1" fill="#000000"/><rect x="81" y="9" width="3" height="1" fill="#000000"/><rect x="87" y="9" width="7" height="1" fill="#000000"/><rect x="95" y="9" width="1" height="1" fill="#000000"/><rect x="99" y="9" width="1" height="1" fill="#000000"/><rect x="101" y="9" width="1" height="1" fill="#000000"/><rect x="104" y="9" width="1" height="1" fill="#000000"/></svg>